<svg xmlns="http://www.w3.org/2000/svg" width="217.878" height="30.015" viewBox="0 0 217.878 30.015">
  <g id="Group_4" data-name="Group 4" transform="translate(-622.211 -417)">
    <g id="Group_1" data-name="Group 1" transform="translate(622.211 417.494)">
      <path id="Path_1" data-name="Path 1" d="M147.478,412.331V383.325h5.7l11.871,19.37v-19.37h5.441v29.006h-5.877l-11.693-18.915v18.915Z" transform="translate(-147.478 -383.325)" fill="#4f4f4e"/>
    </g>
    <g id="Group_3" data-name="Group 3" transform="translate(662.295 417)">
      <g id="Group_2" data-name="Group 2" transform="translate(0)">
        <path id="Path_2" data-name="Path 2" d="M203.1,383.325h10.7a20.924,20.924,0,0,1,5.52.554,9.7,9.7,0,0,1,4.372,2.671,12.679,12.679,0,0,1,2.77,4.7,21.414,21.414,0,0,1,.949,6.855,19.058,19.058,0,0,1-.89,6.173,12.786,12.786,0,0,1-3.106,5.124,10.291,10.291,0,0,1-4.116,2.315,17.7,17.7,0,0,1-5.184.614H203.1Zm5.856,4.907v19.211h4.372a15.935,15.935,0,0,0,3.542-.277,5.4,5.4,0,0,0,2.364-1.207,6.136,6.136,0,0,0,1.534-2.8,18.923,18.923,0,0,0,.594-5.312,17.328,17.328,0,0,0-.594-5.164,6.646,6.646,0,0,0-1.662-2.81,5.581,5.581,0,0,0-2.711-1.365,26.58,26.58,0,0,0-4.808-.277Z" transform="translate(-203.097 -382.831)" fill="#4f4f4e"/>
        <path id="Path_3" data-name="Path 3" d="M243.673,383.325h5.857v15.71a32.525,32.525,0,0,0,.218,4.848,4.7,4.7,0,0,0,1.791,2.859,6.233,6.233,0,0,0,3.868,1.078,5.9,5.9,0,0,0,3.759-1.019,4.026,4.026,0,0,0,1.524-2.5,32.709,32.709,0,0,0,.257-4.927V383.325H266.8V398.56a39.083,39.083,0,0,1-.476,7.38,8.165,8.165,0,0,1-1.751,3.641,8.848,8.848,0,0,1-3.413,2.364,14.839,14.839,0,0,1-5.58.881,16.056,16.056,0,0,1-6.3-.96,9,9,0,0,1-3.394-2.493,7.986,7.986,0,0,1-1.642-3.215,35.211,35.211,0,0,1-.574-7.36Z" transform="translate(-214.43 -382.831)" fill="#4f4f4e"/>
        <path id="Path_4" data-name="Path 4" d="M282.273,402.7l5.7-.553a6.956,6.956,0,0,0,2.088,4.214,6.31,6.31,0,0,0,4.244,1.346,6.524,6.524,0,0,0,4.264-1.2,3.56,3.56,0,0,0,1.434-2.8,2.641,2.641,0,0,0-.6-1.751,4.833,4.833,0,0,0-2.107-1.257q-1.028-.356-4.689-1.266-4.709-1.166-6.609-2.868a7.548,7.548,0,0,1-2.671-5.837,7.457,7.457,0,0,1,1.256-4.145,7.862,7.862,0,0,1,3.621-2.938,14.519,14.519,0,0,1,5.709-1.009q5.46,0,8.221,2.394a8.449,8.449,0,0,1,2.9,6.39l-5.857.257a4.97,4.97,0,0,0-1.612-3.215,5.9,5.9,0,0,0-3.71-.979,6.69,6.69,0,0,0-4,1.049,2.112,2.112,0,0,0-.93,1.8,2.228,2.228,0,0,0,.87,1.761q1.108.93,5.382,1.939a28.418,28.418,0,0,1,6.322,2.088,8.133,8.133,0,0,1,3.2,2.948,9.128,9.128,0,0,1-.227,9.289,8.3,8.3,0,0,1-3.917,3.235,16.448,16.448,0,0,1-6.312,1.059q-5.5,0-8.449-2.543A11.061,11.061,0,0,1,282.273,402.7Z" transform="translate(-225.212 -382.639)" fill="#4f4f4e"/>
        <path id="Path_5" data-name="Path 5" d="M327.559,412.331v-24.1h-8.607v-4.907H342v4.907h-8.587v24.1Z" transform="translate(-235.456 -382.831)" fill="#4f4f4e"/>
        <path id="Path_6" data-name="Path 6" d="M356.207,412.331V383.325h12.327a21.119,21.119,0,0,1,6.756.781,6.666,6.666,0,0,1,3.374,2.78,8.359,8.359,0,0,1,1.267,4.571,7.744,7.744,0,0,1-1.92,5.392,9.218,9.218,0,0,1-5.737,2.681,13.67,13.67,0,0,1,3.136,2.434,33.018,33.018,0,0,1,3.334,4.709l3.542,5.659h-7l-4.235-6.312a40.787,40.787,0,0,0-3.087-4.264,4.483,4.483,0,0,0-1.761-1.207,9.652,9.652,0,0,0-2.948-.326h-1.188v12.109Zm5.856-16.739H366.4a22.334,22.334,0,0,0,5.262-.357,3.15,3.15,0,0,0,1.642-1.227,3.777,3.777,0,0,0,.594-2.177,3.476,3.476,0,0,0-.782-2.364,3.587,3.587,0,0,0-2.206-1.138q-.711-.1-4.274-.1h-4.571Z" transform="translate(-245.862 -382.831)" fill="#4f4f4e"/>
        <path id="Path_7" data-name="Path 7" d="M396.537,412.331V383.325h5.857v29.006Z" transform="translate(-257.126 -382.831)" fill="#4f4f4e"/>
        <path id="Path_8" data-name="Path 8" d="M410.758,397.815a18.452,18.452,0,0,1,1.325-7.44,13.655,13.655,0,0,1,2.7-3.977,11.277,11.277,0,0,1,3.749-2.612,15.929,15.929,0,0,1,6.252-1.147,13.619,13.619,0,0,1,10.259,3.977q3.847,3.977,3.848,11.06,0,7.024-3.818,10.991a13.513,13.513,0,0,1-10.209,3.967q-6.471,0-10.289-3.947T410.758,397.815Zm6.035-.2q0,4.927,2.275,7.469a7.823,7.823,0,0,0,11.526.02q2.244-2.523,2.246-7.568,0-4.987-2.187-7.44a8.1,8.1,0,0,0-11.643.03Q416.793,392.611,416.793,397.616Z" transform="translate(-261.098 -382.639)" fill="#4f4f4e"/>
      </g>
    </g>
    <rect id="Rectangle_1" data-name="Rectangle 1" width="10.431" height="10.431" transform="translate(648.423 417.678)" fill="#ffcd1d"/>
  </g>
</svg>
